<svg xmlns="http://www.w3.org/2000/svg" width="48" height="48" viewBox="0 0 48 48" id="government"><g data-name="Layer 8"><path d="M40.23 37.62h-.89V36.16a1.22 1.22 0 0 0-1.22-1.22h-2V20.59h.17a1.22 1.22 0 0 0 1.23-1.22V18a.48.48 0 0 0-.95 0v1.38a.29.29 0 0 1-.28.28h-5a.3.3 0 0 1-.29-.28V18a.46.46 0 0 0-.47-.47A.46.46 0 0 0 30 18v1.38a1.23 1.23 0 0 0 1.23 1.22h.17V35h-5.1V20.61h.17a1.23 1.23 0 0 0 1.23-1.22V18a.48.48 0 0 0-.95 0v1.38a.29.29 0 0 1-.28.28h-5a.29.29 0 0 1-.28-.28V18a.48.48 0 0 0-.95 0v1.38a1.23 1.23 0 0 0 1.23 1.22h.17V35h-5.1V20.61h.17A1.23 1.23 0 0 0 18 19.39V18a.46.46 0 0 0-.47-.47A.46.46 0 0 0 17 18v1.38a.3.3 0 0 1-.29.28h-5a.29.29 0 0 1-.28-.28V18a.46.46 0 0 0-.47-.47.45.45 0 0 0-.46.47v1.38a1.23 1.23 0 0 0 1.23 1.22h.17V35H9.88a1.21 1.21 0 0 0-1.22 1.22v1.44H7.77a1.23 1.23 0 0 0-1.23 1.22v1.38a1.23 1.23 0 0 0 1.23 1.23H40.23a1.23 1.23 0 0 0 1.23-1.23V38.84a1.23 1.23 0 0 0-1.23-1.22zm-7.87-17h2.76V35H32.36zm-9.74 0h2.76V35H22.62V20.61zm-9.74 0h2.76V35H12.88V20.61zM9.6 36.18a.29.29 0 0 1 .28-.28H38.12a.29.29 0 0 1 .28.28v1.46H9.6V36.18zm30.92 4a.3.3 0 0 1-.29.29H7.77a.3.3 0 0 1-.29-.29V38.84a.3.3 0 0 1 .29-.28H40.23a.3.3 0 0 1 .29.28v1.38zM23.91 16a3.25 3.25 0 1 0-3.25-3.23A3.24 3.24 0 0 0 23.91 16zm0-5.53a2.3 2.3 0 1 1-2.31 2.3A2.31 2.31 0 0 1 23.91 10.44z"></path><path d="M40.18,13.36,25.89,7A5,5,0,0,0,22,7h0L7.84,13.36a1.94,1.94,0,0,0-1.3,2.14v1.75a1.23,1.23,0,0,0,1.23,1.23H40.23a1.23,1.23,0,0,0,1.23-1.23V15.5A2,2,0,0,0,40.18,13.36Zm-32,.87h0s0,0,0,0L22.32,7.82a4,4,0,0,1,3.19,0L39.8,14.23h0c.71.3.71.64.71,1.29v1.75a.29.29,0,0,1-.28.28H7.77a.3.3,0,0,1-.29-.28V15.5C7.48,14.87,7.48,14.52,8.2,14.23Z"></path></g></svg>