<svg width="25" height="24" viewBox="0 0 25 24" fill="none" xmlns="http://www.w3.org/2000/svg">
<path d="M17.2854 2H7.2854C4.52398 2 2.2854 4.23858 2.2854 7V17C2.2854 19.7614 4.52398 22 7.2854 22H17.2854C20.0468 22 22.2854 19.7614 22.2854 17V7C22.2854 4.23858 20.0468 2 17.2854 2Z" stroke="white" stroke-width="2" stroke-linecap="round" stroke-linejoin="round"/>
<path d="M16.2854 11.3701C16.4088 12.2023 16.2666 13.0523 15.8791 13.7991C15.4916 14.5459 14.8785 15.1515 14.127 15.5297C13.3755 15.908 12.5238 16.0397 11.6931 15.906C10.8625 15.7723 10.0951 15.3801 9.50019 14.7852C8.90527 14.1903 8.51308 13.4229 8.37942 12.5923C8.24575 11.7616 8.37742 10.91 8.75568 10.1584C9.13394 9.40691 9.73954 8.7938 10.4863 8.4063C11.2331 8.0188 12.0831 7.87665 12.9154 8.00006C13.7643 8.12594 14.5502 8.52152 15.157 9.12836C15.7639 9.73521 16.1595 10.5211 16.2854 11.3701Z" stroke="white" stroke-width="2" stroke-linecap="round" stroke-linejoin="round"/>
<path d="M17.7854 6.5H17.7954" stroke="white" stroke-width="2" stroke-linecap="round" stroke-linejoin="round"/>
</svg>
