<svg width="25" height="24" viewBox="0 0 25 24" fill="none" xmlns="http://www.w3.org/2000/svg">
<path d="M16.2854 8C17.8767 8 19.4028 8.63214 20.528 9.75736C21.6533 10.8826 22.2854 12.4087 22.2854 14V21H18.2854V14C18.2854 13.4696 18.0747 12.9609 17.6996 12.5858C17.3245 12.2107 16.8158 12 16.2854 12C15.755 12 15.2463 12.2107 14.8712 12.5858C14.4961 12.9609 14.2854 13.4696 14.2854 14V21H10.2854V14C10.2854 12.4087 10.9175 10.8826 12.0428 9.75736C13.168 8.63214 14.6941 8 16.2854 8V8Z" stroke="white" stroke-width="2" stroke-linecap="round" stroke-linejoin="round"/>
<path d="M6.2854 9H2.2854V21H6.2854V9Z" stroke="white" stroke-width="2" stroke-linecap="round" stroke-linejoin="round"/>
<path d="M4.2854 6C5.38997 6 6.2854 5.10457 6.2854 4C6.2854 2.89543 5.38997 2 4.2854 2C3.18083 2 2.2854 2.89543 2.2854 4C2.2854 5.10457 3.18083 6 4.2854 6Z" stroke="white" stroke-width="2" stroke-linecap="round" stroke-linejoin="round"/>
</svg>
