<svg width="204" height="80" viewBox="0 0 204 80" fill="none" xmlns="http://www.w3.org/2000/svg">
<g clip-path="url(#clip0_375_2005)">
<path d="M69.619 47.2486H71.5945C72.0792 47.224 72.554 47.3924 72.9166 47.7174C73.1466 47.951 73.2751 48.2671 73.2741 48.5961V48.6117C73.2741 49.4034 72.6885 49.8537 71.8965 49.9654L73.4374 51.9899H72.9936L71.4989 50.0244H69.958V51.9899H69.619V47.2486ZM71.5544 49.7077C72.3403 49.7077 72.9258 49.3072 72.9258 48.6241C72.9258 47.9876 72.4266 47.587 71.5729 47.587H69.958V49.7201L71.5544 49.7077Z" fill="#4D4D4D"/>
<path d="M74.1 50.2698C74.1 49.2669 74.7996 48.4689 75.7272 48.4689C76.6549 48.4689 77.299 49.2513 77.299 50.276C77.3021 50.3204 77.3021 50.365 77.299 50.4095H74.4575C74.4591 50.7689 74.6009 51.1133 74.8523 51.3683C75.1036 51.6233 75.4445 51.7685 75.8012 51.7726C76.0243 51.773 76.2448 51.7247 76.4475 51.6309C76.6503 51.5371 76.8304 51.4 76.9754 51.2292L77.2065 51.4341C77.0327 51.6422 76.815 51.8085 76.5691 51.9208C76.3233 52.0331 76.0556 52.0885 75.7858 52.0831C75.5551 52.0814 75.3272 52.0324 75.1159 51.9392C74.9047 51.846 74.7144 51.7104 74.5567 51.5408C74.399 51.3712 74.2772 51.1711 74.1987 50.9526C74.1202 50.7341 74.0866 50.5018 74.1 50.2698ZM76.9445 50.099C76.8952 49.4035 76.5008 48.7607 75.7118 48.7607C75.0307 48.7607 74.5068 49.3352 74.4483 50.099H76.9445Z" fill="#4D4D4D"/>
<path d="M78.0386 50.276C78.0279 50.0464 78.0627 49.817 78.1411 49.6012C78.2195 49.3854 78.3399 49.1876 78.4952 49.0193C78.6505 48.851 78.8375 48.7156 79.0454 48.6211C79.2533 48.5266 79.4779 48.4748 79.7059 48.4689C79.9921 48.4713 80.2727 48.5487 80.5202 48.6935C80.7677 48.8383 80.9735 49.0455 81.1174 49.2948V47.0592H81.4471V52.0023H81.1174V51.2323C80.9763 51.4861 80.7718 51.6985 80.5242 51.8482C80.2767 51.998 79.9946 52.08 79.7059 52.0862C79.4772 52.0815 79.2518 52.0305 79.0431 51.9363C78.8344 51.842 78.6467 51.7063 78.4911 51.5374C78.3355 51.3685 78.2153 51.1698 78.1375 50.9531C78.0598 50.7363 78.0261 50.5061 78.0386 50.276ZM81.1389 50.276C81.1443 50.0858 81.1123 49.8965 81.0447 49.7189C80.9772 49.5413 80.8755 49.3788 80.7455 49.2409C80.6155 49.103 80.4597 48.9923 80.2871 48.9152C80.1145 48.8382 79.9285 48.7962 79.7398 48.7918C78.994 48.7918 78.3961 49.3414 78.3961 50.2667C78.3827 50.4544 78.4073 50.643 78.4683 50.8209C78.5293 50.9988 78.6256 51.1624 78.7512 51.3017C78.8768 51.441 79.0292 51.5532 79.1991 51.6315C79.3691 51.7098 79.553 51.7525 79.7398 51.7571C80.121 51.7465 80.4824 51.5839 80.7448 51.3051C81.0071 51.0262 81.1489 50.6538 81.1389 50.2698V50.276Z" fill="#4D4D4D"/>
<path d="M84.492 50.276C84.4813 50.0464 84.5161 49.817 84.5945 49.6012C84.6729 49.3854 84.7933 49.1876 84.9486 49.0193C85.1039 48.851 85.291 48.7156 85.4989 48.6211C85.7068 48.5266 85.9313 48.4748 86.1593 48.4689C86.4455 48.4713 86.7261 48.5487 86.9736 48.6935C87.2211 48.8383 87.4269 49.0455 87.5708 49.2948V47.0592H87.8975V52.0023H87.5708V51.2323C87.4297 51.4861 87.2252 51.6985 86.9777 51.8482C86.7301 51.998 86.448 52.08 86.1593 52.0862C85.9305 52.082 85.7049 52.0313 85.496 51.9371C85.2871 51.843 85.0992 51.7074 84.9435 51.5384C84.7878 51.3694 84.6676 51.1704 84.59 50.9535C84.5125 50.7366 84.4791 50.5062 84.492 50.276ZM87.5739 50.276C87.5796 50.0857 87.5479 49.8962 87.4805 49.7184C87.4132 49.5406 87.3115 49.378 87.1814 49.24C87.0513 49.102 86.8953 48.9913 86.7226 48.9144C86.5498 48.8375 86.3636 48.7958 86.1747 48.7918C85.4289 48.7918 84.831 49.3414 84.831 50.2667C84.8176 50.4544 84.8422 50.643 84.9032 50.8209C84.9643 50.9988 85.0605 51.1624 85.1861 51.3017C85.3118 51.441 85.4642 51.5532 85.6341 51.6315C85.804 51.7098 85.9879 51.7525 86.1747 51.7571C86.3649 51.7542 86.5526 51.7134 86.727 51.6369C86.9014 51.5604 87.059 51.4497 87.1906 51.3114C87.3222 51.173 87.4252 51.0097 87.4937 50.8309C87.5621 50.6521 87.5946 50.4613 87.5893 50.2698L87.5739 50.276Z" fill="#4D4D4D"/>
<path d="M88.9145 50.2698C88.9145 49.2669 89.611 48.4689 90.5386 48.4689C91.4662 48.4689 92.1134 49.2513 92.1134 50.276C92.1166 50.3204 92.1166 50.365 92.1134 50.4095H89.2689C89.2744 50.7654 89.417 51.1053 89.6666 51.3573C89.9161 51.6093 90.2531 51.7538 90.6064 51.7602C90.83 51.7611 91.0511 51.7129 91.2544 51.6191C91.4577 51.5253 91.6383 51.388 91.7837 51.2168L92.0117 51.4217C91.8389 51.6301 91.6217 51.7966 91.3763 51.9089C91.1309 52.0213 90.8635 52.0766 90.5941 52.0707C90.365 52.068 90.1389 52.0188 89.9292 51.926C89.7195 51.8332 89.5305 51.6987 89.3737 51.5305C89.2169 51.3623 89.0953 51.164 89.0164 50.9473C88.9375 50.7307 88.9028 50.5002 88.9145 50.2698ZM91.7559 50.099C91.7097 49.4035 91.3121 48.7607 90.5232 48.7607C89.8452 48.7607 89.3213 49.3352 89.2596 50.099H91.7559Z" fill="#4D4D4D"/>
<path d="M96.9519 47.2144H97.2879L99.4791 51.9898H99.0969L98.4959 50.6609H95.7223L95.1244 51.9898H94.7607L96.9519 47.2144ZM98.348 50.3442L97.1153 47.6025L95.8825 50.3442H98.348Z" fill="#4D4D4D"/>
<path d="M100.105 51.5428L100.299 51.2789C100.648 51.5652 101.082 51.7248 101.532 51.7322C101.994 51.7322 102.358 51.4776 102.358 51.0771C102.358 50.6703 101.929 50.5213 101.451 50.3846C100.894 50.2232 100.274 50.0524 100.274 49.4376V49.4221C100.274 48.8694 100.74 48.4689 101.402 48.4689C101.84 48.4748 102.268 48.6062 102.635 48.8477L102.462 49.124C102.146 48.9081 101.775 48.7885 101.393 48.7794C100.921 48.7794 100.613 49.0371 100.613 49.3817V49.3973C100.613 49.7823 101.079 49.9251 101.569 50.0679C102.12 50.2232 102.697 50.425 102.697 51.0336C102.697 51.6546 102.173 52.0427 101.513 52.0427C101.002 52.0356 100.507 51.86 100.105 51.5428Z" fill="#4D4D4D"/>
<path d="M103.504 50.276C103.501 50.0398 103.544 49.8054 103.631 49.5863C103.719 49.3672 103.849 49.1678 104.013 48.9996C104.178 48.8315 104.374 48.698 104.59 48.6069C104.806 48.5158 105.039 48.4689 105.273 48.4689C105.505 48.4684 105.736 48.5147 105.95 48.6048C106.165 48.695 106.359 48.8274 106.523 48.9942C106.686 49.1609 106.815 49.3588 106.901 49.5762C106.988 49.7936 107.03 50.0262 107.027 50.2604C107.036 50.4997 106.998 50.7386 106.914 50.9626C106.83 51.1866 106.702 51.3912 106.538 51.564C106.373 51.7369 106.175 51.8744 105.957 51.9684C105.738 52.0623 105.503 52.1107 105.265 52.1107C105.028 52.1107 104.792 52.0623 104.574 51.9684C104.355 51.8744 104.157 51.7369 103.993 51.564C103.828 51.3912 103.7 51.1866 103.616 50.9626C103.532 50.7386 103.494 50.4997 103.504 50.2604V50.276ZM106.669 50.276C106.676 50.0839 106.644 49.8924 106.576 49.7127C106.509 49.533 106.406 49.3687 106.275 49.2294C106.143 49.0901 105.986 48.9785 105.811 48.9013C105.636 48.824 105.448 48.7826 105.258 48.7794C105.068 48.7813 104.882 48.8215 104.708 48.8975C104.535 48.9736 104.378 49.0839 104.248 49.2221C104.118 49.3602 104.017 49.5233 103.95 49.7017C103.884 49.8801 103.854 50.0701 103.861 50.2604C103.855 50.4525 103.886 50.644 103.954 50.8237C104.022 51.0034 104.124 51.1677 104.256 51.307C104.387 51.4463 104.545 51.5579 104.719 51.6352C104.894 51.7124 105.082 51.7539 105.273 51.7571C105.462 51.7551 105.649 51.715 105.822 51.6389C105.996 51.5629 106.152 51.4525 106.282 51.3143C106.412 51.1762 106.514 51.0131 106.58 50.8347C106.647 50.6563 106.677 50.4663 106.669 50.276Z" fill="#4D4D4D"/>
<path d="M107.806 50.2759C107.801 49.9085 107.908 49.5483 108.114 49.2448C108.32 48.9414 108.614 48.7096 108.955 48.5813C109.297 48.453 109.67 48.4345 110.023 48.5283C110.375 48.6222 110.691 48.8237 110.925 49.1054L110.688 49.3475C110.549 49.1765 110.375 49.0373 110.179 48.9394C109.982 48.8414 109.767 48.7868 109.547 48.7793C109.359 48.7833 109.174 48.825 109.002 48.9019C108.83 48.9788 108.675 49.0893 108.546 49.2272C108.417 49.365 108.316 49.5274 108.25 49.7048C108.184 49.8822 108.154 50.071 108.161 50.2604C108.155 50.4523 108.187 50.6434 108.255 50.8227C108.323 51.002 108.425 51.166 108.557 51.3052C108.688 51.4443 108.845 51.5559 109.02 51.6335C109.194 51.711 109.382 51.753 109.572 51.757C109.794 51.7497 110.011 51.6944 110.209 51.5947C110.408 51.495 110.583 51.3534 110.722 51.1795L110.95 51.3844C110.724 51.6774 110.412 51.8914 110.059 51.9962C109.705 52.1009 109.328 52.0912 108.981 51.9683C108.633 51.8454 108.333 51.6156 108.122 51.3114C107.911 51.0071 107.801 50.6438 107.806 50.2728V50.2759Z" fill="#4D4D4D"/>
<path d="M111.887 47.1958H112.296V47.6522H111.887V47.1958ZM111.927 48.5527H112.253V52.0054H111.927V48.5527Z" fill="#4D4D4D"/>
<path d="M113.27 50.987C113.27 50.2698 113.887 49.863 114.768 49.863C115.152 49.8582 115.535 49.9084 115.905 50.0121V49.863C115.905 49.1644 115.48 48.8073 114.774 48.8073C114.399 48.8103 114.03 48.9051 113.699 49.0837L113.579 48.7918C113.955 48.5947 114.372 48.4884 114.796 48.4813C114.992 48.4695 115.189 48.4969 115.374 48.5619C115.56 48.6269 115.731 48.7283 115.878 48.8601C115.998 48.9905 116.091 49.1442 116.151 49.3117C116.21 49.4793 116.236 49.6573 116.226 49.8351V51.9899H115.918V51.4155C115.768 51.6241 115.571 51.7928 115.342 51.907C115.113 52.0212 114.86 52.0773 114.605 52.0707C113.954 52.0707 113.27 51.7043 113.27 50.987ZM115.911 50.6952V50.3008C115.532 50.1988 115.142 50.1466 114.75 50.1456C114.022 50.1456 113.619 50.4561 113.619 50.9498V50.9653C113.619 51.4652 114.09 51.7571 114.614 51.7571C115.314 51.7602 115.911 51.3255 115.911 50.6952Z" fill="#4D4D4D"/>
<path d="M117.175 50.2759C117.169 49.9085 117.277 49.5483 117.483 49.2448C117.688 48.9414 117.982 48.7096 118.324 48.5813C118.666 48.453 119.039 48.4345 119.392 48.5283C119.744 48.6222 120.059 48.8237 120.294 49.1054L120.057 49.3475C119.918 49.1765 119.744 49.0373 119.547 48.9394C119.351 48.8414 119.136 48.7868 118.916 48.7793C118.728 48.7833 118.543 48.825 118.371 48.9019C118.199 48.9788 118.044 49.0893 117.915 49.2272C117.786 49.365 117.685 49.5274 117.619 49.7048C117.553 49.8822 117.522 50.071 117.529 50.2604C117.524 50.4523 117.556 50.6434 117.624 50.8227C117.692 51.002 117.794 51.166 117.926 51.3052C118.057 51.4443 118.214 51.5559 118.388 51.6335C118.563 51.711 118.75 51.753 118.941 51.757C119.162 51.7497 119.38 51.6944 119.578 51.5947C119.777 51.495 119.951 51.3534 120.09 51.1795L120.319 51.3844C120.093 51.6774 119.781 51.8914 119.428 51.9962C119.074 52.1009 118.697 52.0912 118.35 51.9683C118.002 51.8454 117.702 51.6156 117.491 51.3114C117.28 51.0071 117.17 50.6438 117.175 50.2728V50.2759Z" fill="#4D4D4D"/>
<path d="M121.252 47.1958H121.665V47.6522H121.252V47.1958ZM121.295 48.5527H121.622V52.0054H121.295V48.5527Z" fill="#4D4D4D"/>
<path d="M122.685 50.276C122.682 50.0398 122.725 49.8054 122.813 49.5863C122.9 49.3672 123.03 49.1678 123.195 48.9996C123.359 48.8315 123.555 48.698 123.772 48.6069C123.988 48.5158 124.22 48.4689 124.454 48.4689C124.687 48.4684 124.917 48.5147 125.132 48.6048C125.346 48.695 125.541 48.8274 125.704 48.9942C125.867 49.1609 125.996 49.3588 126.082 49.5762C126.169 49.7936 126.212 50.0262 126.208 50.2604C126.218 50.4997 126.18 50.7386 126.096 50.9626C126.012 51.1866 125.883 51.3912 125.719 51.564C125.554 51.7369 125.357 51.8744 125.138 51.9684C124.92 52.0623 124.684 52.1107 124.447 52.1107C124.209 52.1107 123.974 52.0623 123.755 51.9684C123.536 51.8744 123.339 51.7369 123.174 51.564C123.01 51.3912 122.882 51.1866 122.798 50.9626C122.714 50.7386 122.675 50.4997 122.685 50.2604V50.276ZM125.85 50.276C125.857 50.0839 125.826 49.8924 125.758 49.7127C125.69 49.533 125.588 49.3687 125.456 49.2294C125.325 49.0901 125.167 48.9785 124.993 48.9013C124.818 48.824 124.63 48.7826 124.439 48.7794C124.25 48.7813 124.063 48.8215 123.89 48.8975C123.716 48.9736 123.56 49.0839 123.43 49.2221C123.299 49.3602 123.198 49.5233 123.132 49.7017C123.065 49.8801 123.035 50.0701 123.043 50.2604C123.036 50.4525 123.068 50.644 123.135 50.8237C123.203 51.0034 123.306 51.1677 123.437 51.307C123.568 51.4463 123.726 51.5579 123.901 51.6352C124.075 51.7124 124.264 51.7539 124.454 51.7571C124.643 51.7547 124.83 51.7142 125.003 51.638C125.176 51.5618 125.333 51.4515 125.463 51.3134C125.593 51.1753 125.694 51.0124 125.761 50.8342C125.827 50.656 125.858 50.4662 125.85 50.276Z" fill="#4D4D4D"/>
<path d="M127.222 48.5371H127.552V49.1798C127.668 48.9543 127.846 48.7667 128.064 48.6387C128.282 48.5107 128.532 48.4475 128.784 48.4564C128.971 48.4459 129.157 48.4759 129.331 48.5442C129.505 48.6126 129.662 48.7177 129.792 48.8525C129.922 48.9873 130.022 49.1487 130.084 49.3257C130.147 49.5027 130.172 49.6912 130.156 49.8785V51.9899H129.826V49.9375C129.826 49.2264 129.428 48.7607 128.738 48.7607C128.578 48.7583 128.418 48.7892 128.27 48.8514C128.122 48.9135 127.988 49.0057 127.876 49.1221C127.765 49.2385 127.678 49.3767 127.622 49.5281C127.565 49.6796 127.541 49.8411 127.549 50.0027V51.9992H127.219L127.222 48.5371Z" fill="#4D4D4D"/>
<path d="M131.105 50.2698C131.105 49.2669 131.805 48.4689 132.732 48.4689C133.66 48.4689 134.307 49.2513 134.307 50.276C134.312 50.3203 134.312 50.3651 134.307 50.4095H131.466C131.468 50.7687 131.61 51.1126 131.861 51.3674C132.112 51.6222 132.453 51.7677 132.809 51.7726C133.033 51.7735 133.254 51.7254 133.457 51.6315C133.661 51.5377 133.841 51.4004 133.987 51.2292L134.215 51.4341C134.041 51.642 133.824 51.8082 133.579 51.9204C133.333 52.0327 133.066 52.0883 132.797 52.0831C132.566 52.0818 132.338 52.0331 132.126 51.9401C131.914 51.8471 131.723 51.7117 131.565 51.5421C131.407 51.3725 131.284 51.1723 131.205 50.9535C131.126 50.7348 131.092 50.5022 131.105 50.2698ZM133.95 50.099C133.903 49.4035 133.506 48.7607 132.717 48.7607C132.039 48.7607 131.515 49.3352 131.453 50.099H133.95Z" fill="#4D4D4D"/>
<path d="M134.985 51.5428L135.182 51.2789C135.531 51.5652 135.965 51.7248 136.415 51.7322C136.877 51.7322 137.241 51.4776 137.241 51.0771C137.241 50.6703 136.81 50.5213 136.335 50.3846C135.777 50.2232 135.158 50.0524 135.158 49.4376V49.4221C135.158 48.8694 135.62 48.4689 136.286 48.4689C136.719 48.4781 137.14 48.6093 137.503 48.8477L137.327 49.124C137.016 48.91 136.65 48.7904 136.273 48.7794C135.802 48.7794 135.494 49.0371 135.494 49.3817V49.3973C135.494 49.7823 135.956 49.9251 136.449 50.0679C136.997 50.2232 137.577 50.425 137.577 51.0336C137.577 51.6546 137.053 52.0427 136.393 52.0427C135.883 52.0344 135.388 51.859 134.985 51.5428Z" fill="#4D4D4D"/>
<path d="M140.696 47.2485H141.047V51.6638H143.821V51.9899H140.708L140.696 47.2485Z" fill="#4D4D4D"/>
<path d="M144.502 50.987C144.502 50.2698 145.118 49.863 146 49.863C146.384 49.8582 146.767 49.9084 147.137 50.0121V49.863C147.137 49.1644 146.711 48.8073 146.006 48.8073C145.63 48.8103 145.261 48.9051 144.93 49.0837L144.81 48.7918C145.186 48.5947 145.603 48.4884 146.027 48.4813C146.223 48.4695 146.42 48.4969 146.606 48.5619C146.791 48.6269 146.962 48.7283 147.109 48.8601C147.229 48.9905 147.322 49.1442 147.382 49.3117C147.442 49.4793 147.468 49.6573 147.457 49.8351V51.9899H147.149V51.4155C147 51.6241 146.802 51.7928 146.573 51.907C146.344 52.0212 146.091 52.0773 145.836 52.0707C145.186 52.0707 144.502 51.7043 144.502 50.987ZM147.143 50.6952V50.3008C146.764 50.1988 146.373 50.1466 145.981 50.1456C145.254 50.1456 144.85 50.4561 144.85 50.9498V50.9653C144.85 51.4652 145.322 51.7571 145.845 51.7571C146.545 51.7602 147.143 51.3255 147.143 50.6952Z" fill="#4D4D4D"/>
<path d="M148.789 51.1018V48.8414H148.292V48.5309H148.789V47.4255H149.118V48.5309H150.32V48.8414H149.118V51.0677C149.111 51.1594 149.123 51.2517 149.155 51.338C149.187 51.4242 149.237 51.5023 149.303 51.5665C149.368 51.6307 149.447 51.6794 149.533 51.7091C149.62 51.7388 149.712 51.7488 149.803 51.7384C149.978 51.7371 150.151 51.6957 150.308 51.6173V51.9278C150.134 52.0114 149.943 52.0539 149.75 52.052C149.622 52.0646 149.493 52.0489 149.372 52.0059C149.251 51.9629 149.141 51.8937 149.049 51.8031C148.958 51.7125 148.887 51.6027 148.842 51.4816C148.797 51.3604 148.779 51.2308 148.789 51.1018Z" fill="#4D4D4D"/>
<path d="M151.319 47.1958H151.729V47.6522H151.319V47.1958ZM151.359 48.5527H151.689V52.0054H151.359V48.5527Z" fill="#4D4D4D"/>
<path d="M152.968 48.5371H153.297V49.1798C153.415 48.955 153.593 48.7681 153.811 48.6401C154.029 48.5122 154.278 48.4486 154.53 48.4564C154.716 48.4459 154.903 48.4759 155.077 48.5442C155.25 48.6126 155.408 48.7177 155.538 48.8525C155.668 48.9873 155.767 49.1487 155.83 49.3257C155.893 49.5027 155.917 49.6912 155.902 49.8785V51.9899H155.572V49.9375C155.572 49.2264 155.174 48.7607 154.481 48.7607C154.32 48.7583 154.161 48.7892 154.013 48.8514C153.865 48.9135 153.731 49.0057 153.619 49.1221C153.508 49.2385 153.421 49.3767 153.365 49.5281C153.308 49.6796 153.283 49.8411 153.291 50.0027V51.9992H152.961L152.968 48.5371Z" fill="#4D4D4D"/>
<path d="M156.866 50.276C156.863 50.0398 156.906 49.8054 156.994 49.5863C157.081 49.3672 157.211 49.1678 157.375 48.9996C157.54 48.8315 157.736 48.698 157.952 48.6069C158.169 48.5158 158.401 48.4689 158.635 48.4689C158.868 48.4684 159.098 48.5147 159.312 48.6048C159.527 48.695 159.722 48.8274 159.885 48.9942C160.048 49.1609 160.177 49.3588 160.263 49.5762C160.35 49.7936 160.392 50.0262 160.389 50.2604C160.399 50.4997 160.36 50.7386 160.276 50.9626C160.192 51.1866 160.064 51.3912 159.9 51.564C159.735 51.7369 159.538 51.8744 159.319 51.9684C159.1 52.0623 158.865 52.1107 158.627 52.1107C158.39 52.1107 158.155 52.0623 157.936 51.9684C157.717 51.8744 157.52 51.7369 157.355 51.564C157.191 51.3912 157.062 51.1866 156.978 50.9626C156.894 50.7386 156.856 50.4997 156.866 50.2604V50.276ZM160.031 50.276C160.038 50.0839 160.006 49.8924 159.939 49.7127C159.871 49.533 159.768 49.3687 159.637 49.2294C159.506 49.0901 159.348 48.9785 159.173 48.9013C158.999 48.824 158.81 48.7826 158.62 48.7794C158.431 48.7813 158.244 48.8215 158.07 48.8975C157.897 48.9736 157.741 49.0839 157.61 49.2221C157.48 49.3602 157.379 49.5233 157.312 49.7017C157.246 49.8801 157.216 50.0701 157.224 50.2604C157.217 50.4525 157.249 50.644 157.316 50.8237C157.384 51.0034 157.486 51.1677 157.618 51.307C157.749 51.4463 157.907 51.5579 158.082 51.6352C158.256 51.7124 158.444 51.7539 158.635 51.7571C158.823 51.7531 159.008 51.7114 159.18 51.6345C159.352 51.5576 159.507 51.4469 159.635 51.309C159.764 51.1711 159.865 51.0088 159.93 50.8314C159.996 50.654 160.026 50.4652 160.019 50.276H160.031Z" fill="#4D4D4D"/>
<path d="M161.107 50.987C161.107 50.2698 161.723 49.863 162.608 49.863C162.991 49.8582 163.373 49.9083 163.742 50.012V49.863C163.742 49.1644 163.32 48.8073 162.614 48.8073C162.238 48.8098 161.869 48.9046 161.538 49.0836L161.418 48.7918C161.794 48.5951 162.209 48.4888 162.632 48.4813C162.829 48.4693 163.026 48.4965 163.212 48.5616C163.398 48.6266 163.57 48.728 163.717 48.8601C163.837 48.9905 163.93 49.1441 163.99 49.3117C164.05 49.4792 164.076 49.6573 164.065 49.8351V51.9899H163.742V51.4155C163.593 51.6242 163.396 51.7931 163.168 51.9073C162.939 52.0216 162.687 52.0776 162.432 52.0706C161.797 52.0706 161.107 51.7043 161.107 50.987ZM163.751 50.6951V50.3008C163.371 50.1988 162.979 50.1466 162.586 50.1455C161.862 50.1455 161.458 50.456 161.458 50.9497V50.9653C161.458 51.4652 161.927 51.757 162.454 51.757C163.15 51.7601 163.751 51.3254 163.751 50.6951Z" fill="#4D4D4D"/>
<path d="M165.249 48.5371H165.579V49.1581C165.685 48.9466 165.849 48.7694 166.05 48.6465C166.252 48.5236 166.483 48.4599 166.719 48.4626C166.963 48.4572 167.203 48.5248 167.408 48.6569C167.614 48.789 167.776 48.9796 167.875 49.2047C167.991 48.9776 168.168 48.7878 168.386 48.6567C168.604 48.5256 168.854 48.4583 169.107 48.4626C169.921 48.4626 170.423 49.037 170.423 49.9033V51.9961H170.093V49.9437C170.093 49.1985 169.711 48.7669 169.08 48.7669C168.927 48.7692 168.777 48.8032 168.638 48.8669C168.5 48.9306 168.376 49.0225 168.274 49.1368C168.173 49.2512 168.096 49.3855 168.048 49.5313C168 49.6771 167.983 49.8312 167.998 49.984V51.9961H167.668V49.925C167.668 49.2047 167.28 48.7669 166.666 48.7669C166.513 48.7748 166.363 48.8133 166.225 48.8802C166.087 48.9472 165.963 49.0412 165.861 49.1568C165.759 49.2724 165.681 49.4073 165.632 49.5536C165.582 49.6999 165.562 49.8546 165.572 50.0089V51.9992H165.249V48.5371Z" fill="#4D4D4D"/>
<path d="M171.403 50.2698C171.403 49.2669 172.103 48.4689 173.03 48.4689C173.958 48.4689 174.602 49.2513 174.602 50.276C174.605 50.3204 174.605 50.365 174.602 50.4095H171.761C171.762 50.7689 171.904 51.1133 172.156 51.3683C172.407 51.6233 172.748 51.7685 173.104 51.7726C173.328 51.7735 173.549 51.7254 173.752 51.6315C173.956 51.5377 174.136 51.4004 174.282 51.2292L174.51 51.4341C174.336 51.642 174.119 51.8082 173.874 51.9204C173.629 52.0327 173.362 52.0883 173.092 52.0831C172.861 52.0813 172.633 52.0324 172.422 51.9392C172.21 51.846 172.02 51.7106 171.862 51.541C171.704 51.3714 171.582 51.1713 171.503 50.9528C171.424 50.7343 171.39 50.5019 171.403 50.2698ZM174.248 50.099C174.202 49.4035 173.804 48.7607 173.015 48.7607C172.334 48.7607 171.81 49.3352 171.752 50.099H174.248Z" fill="#4D4D4D"/>
<path d="M175.564 48.5371H175.894V49.5183C176.013 49.2112 176.223 48.9479 176.494 48.7628C176.765 48.5777 177.085 48.4796 177.413 48.4812V48.8476H177.379C176.587 48.8476 175.894 49.45 175.894 50.574V51.9899H175.564V48.5371Z" fill="#4D4D4D"/>
<path d="M178.26 47.1958H178.67V47.6522H178.26V47.1958ZM178.3 48.5527H178.63V52.0054H178.3V48.5527Z" fill="#4D4D4D"/>
<path d="M179.69 50.2759C179.685 49.9085 179.792 49.5483 179.998 49.2448C180.204 48.9414 180.498 48.7096 180.84 48.5813C181.181 48.453 181.554 48.4345 181.907 48.5283C182.26 48.6222 182.575 48.8237 182.809 49.1054L182.575 49.3475C182.436 49.1761 182.262 49.0367 182.064 48.9387C181.867 48.8407 181.651 48.7864 181.432 48.7793C181.244 48.7833 181.058 48.825 180.887 48.9019C180.715 48.9788 180.56 49.0895 180.431 49.2274C180.302 49.3653 180.202 49.5276 180.136 49.705C180.071 49.8824 180.04 50.0712 180.048 50.2604C180.042 50.4523 180.074 50.6434 180.142 50.8227C180.21 51.002 180.313 51.166 180.444 51.3052C180.575 51.4443 180.732 51.5559 180.907 51.6335C181.081 51.711 181.269 51.753 181.459 51.757C181.681 51.7497 181.898 51.6944 182.097 51.5947C182.295 51.495 182.47 51.3534 182.609 51.1795L182.837 51.3844C182.61 51.6768 182.298 51.8901 181.945 51.9945C181.592 52.0989 181.215 52.089 180.868 51.9663C180.52 51.8436 180.22 51.6142 180.009 51.3104C179.797 51.0066 179.686 50.6437 179.69 50.2728V50.2759Z" fill="#4D4D4D"/>
<path d="M183.481 50.987C183.481 50.2697 184.097 49.863 184.982 49.863C185.365 49.8584 185.747 49.9086 186.116 50.012V49.863C186.116 49.1644 185.694 48.8073 184.988 48.8073C184.612 48.8094 184.243 48.9043 183.912 49.0836L183.789 48.7918C184.166 48.5959 184.583 48.4896 185.007 48.4813C185.203 48.469 185.399 48.4961 185.585 48.5612C185.771 48.6262 185.942 48.7278 186.088 48.8601C186.212 48.9888 186.308 49.1418 186.371 49.3095C186.433 49.4772 186.461 49.6561 186.452 49.835V51.9899H186.128V51.4155C185.98 51.624 185.783 51.7928 185.554 51.907C185.326 52.0212 185.073 52.0773 184.819 52.0706C184.168 52.0706 183.481 51.7042 183.481 50.987ZM186.122 50.6951V50.3008C185.743 50.1987 185.353 50.1466 184.96 50.1455C184.233 50.1455 183.832 50.456 183.832 50.9497V50.9653C183.832 51.4652 184.301 51.757 184.825 51.757C185.527 51.7601 186.122 51.3254 186.122 50.6951Z" fill="#4D4D4D"/>
<path d="M187.623 48.5371H187.95V49.1798C188.067 48.955 188.245 48.7681 188.463 48.6401C188.681 48.5122 188.93 48.4486 189.182 48.4564C189.369 48.4459 189.555 48.4759 189.729 48.5442C189.903 48.6126 190.06 48.7177 190.19 48.8525C190.32 48.9873 190.42 49.1487 190.482 49.3257C190.545 49.5027 190.57 49.6912 190.554 49.8785V51.9899H190.224V49.9375C190.224 49.2264 189.827 48.7607 189.133 48.7607C188.973 48.7583 188.813 48.7892 188.665 48.8514C188.517 48.9135 188.383 49.0057 188.271 49.1221C188.16 49.2385 188.073 49.3767 188.017 49.5281C187.96 49.6796 187.936 49.8411 187.944 50.0027V51.9992H187.623V48.5371Z" fill="#4D4D4D"/>
<path d="M191.46 50.987C191.46 50.2698 192.076 49.863 192.958 49.863C193.342 49.8582 193.725 49.9084 194.095 50.0121V49.863C194.095 49.1644 193.67 48.8073 192.964 48.8073C192.588 48.8103 192.219 48.9051 191.888 49.0837L191.768 48.7918C192.149 48.5924 192.571 48.486 193.001 48.4813C193.197 48.4695 193.394 48.4969 193.579 48.5619C193.765 48.6269 193.936 48.7283 194.083 48.8601C194.203 48.9905 194.296 49.1442 194.356 49.3117C194.416 49.4793 194.441 49.6573 194.431 49.8351V51.9899H194.123V51.4155C193.973 51.6241 193.776 51.7928 193.547 51.907C193.318 52.0212 193.065 52.0773 192.81 52.0707C192.144 52.0707 191.46 51.7043 191.46 50.987ZM194.101 50.6952V50.3008C193.722 50.1988 193.332 50.1466 192.939 50.1456C192.212 50.1456 191.808 50.4561 191.808 50.9498V50.9653C191.808 51.4652 192.28 51.7571 192.804 51.7571C193.503 51.7602 194.101 51.3255 194.101 50.6952Z" fill="#4D4D4D"/>
<path d="M195.303 51.5428L195.497 51.2789C195.846 51.5643 196.28 51.7239 196.73 51.7322C197.195 51.7322 197.559 51.4776 197.559 51.0771C197.559 50.6703 197.127 50.5213 196.65 50.3846C196.092 50.2232 195.476 50.0524 195.476 49.4376V49.4221C195.476 48.8694 195.938 48.4689 196.604 48.4689C197.042 48.4752 197.469 48.6065 197.836 48.8477L197.661 49.124C197.349 48.9105 196.983 48.7909 196.607 48.7794C196.135 48.7794 195.827 49.0371 195.827 49.3817V49.3973C195.827 49.7823 196.289 49.9251 196.779 50.0679C197.331 50.2232 197.91 50.425 197.91 51.0336C197.91 51.6546 197.386 52.0427 196.727 52.0427C196.211 52.0378 195.71 51.8622 195.303 51.5428Z" fill="#4D4D4D"/>
<path d="M200.693 52.9431L200.807 52.6543C200.989 52.7455 201.19 52.7893 201.393 52.7816C201.747 52.7816 201.984 52.5705 202.24 51.9681L200.591 48.5371H200.977L202.401 51.6235L203.633 48.5371H203.997L202.511 52.1109C202.203 52.8375 201.861 53.0921 201.368 53.0921C201.135 53.0946 200.904 53.0436 200.693 52.9431Z" fill="#4D4D4D"/>
<path d="M69.4094 57.7528C69.4004 57.4352 69.4544 57.119 69.5683 56.8228C69.6823 56.5266 69.8538 56.2563 70.0728 56.0278C70.2919 55.7993 70.5541 55.6172 70.8439 55.4922C71.1338 55.3671 71.4456 55.3018 71.7609 55.2998C72.1012 55.293 72.4394 55.3567 72.7543 55.487C73.0692 55.6173 73.3542 55.8115 73.5915 56.0574L73.3419 56.3151C73.1393 56.0951 72.8937 55.9197 72.6205 55.8C72.3474 55.6803 72.0526 55.6189 71.7547 55.6196C71.4852 55.6231 71.2192 55.6811 70.9724 55.7903C70.7256 55.8995 70.5032 56.0576 70.3183 56.2551C70.1334 56.4527 69.9898 56.6858 69.8962 56.9404C69.8025 57.195 69.7606 57.466 69.7731 57.7372C69.7611 58.0096 69.8034 58.2817 69.8974 58.5374C69.9914 58.7931 70.1353 59.0273 70.3206 59.2261C70.5058 59.4249 70.7287 59.5843 70.976 59.6949C71.2234 59.8056 71.4903 59.8652 71.7609 59.8704C72.0677 59.8704 72.371 59.8045 72.6505 59.6771C72.9301 59.5496 73.1794 59.3636 73.3819 59.1314L73.6161 59.3611C73.3807 59.6243 73.0925 59.834 72.7705 59.9764C72.4485 60.1188 72.1001 60.1906 71.7485 60.1871C71.4348 60.1872 71.1242 60.1238 70.8352 60.0005C70.5463 59.8773 70.2849 59.6967 70.0667 59.4696C69.8484 59.2425 69.6778 58.9734 69.5649 58.6785C69.4519 58.3835 69.3991 58.0687 69.4094 57.7528Z" fill="#4D4D4D"/>
<path d="M74.2202 59.1127C74.2202 58.3954 74.8366 57.9887 75.7211 57.9887C76.1042 57.9838 76.4861 58.034 76.8552 58.1377V57.9887C76.8552 57.2901 76.433 56.933 75.7272 56.933C75.3518 56.936 74.9827 57.0308 74.6517 57.2093L74.5315 56.9175C74.9079 56.7204 75.3246 56.6141 75.7488 56.607C75.945 56.5952 76.1416 56.6226 76.3272 56.6876C76.5128 56.7526 76.6839 56.8539 76.8305 56.9858C76.9512 57.116 77.0443 57.2696 77.1041 57.4372C77.164 57.6048 77.1894 57.7829 77.1788 57.9607V60.1156H76.8552V59.5412C76.7067 59.7499 76.5096 59.9188 76.2812 60.033C76.0529 60.1472 75.8003 60.2033 75.5454 60.1963C74.9075 60.1963 74.2202 59.8299 74.2202 59.1127ZM76.8644 58.8208V58.4296C76.4844 58.3276 76.0928 58.2754 75.6995 58.2743C74.9753 58.2743 74.5715 58.5848 74.5715 59.0785C74.5715 59.5784 75.0431 59.8703 75.567 59.8703C76.2635 59.8858 76.8644 59.4511 76.8644 58.8208Z" fill="#4D4D4D"/>
<path d="M78.3622 56.6629H78.692V57.6441C78.8108 57.3363 79.0198 57.0722 79.2912 56.887C79.5626 56.7017 79.8835 56.6041 80.2113 56.607V56.9734H80.1774C79.3823 56.9734 78.692 57.5758 78.692 58.6998V60.1156H78.3622V56.6629Z" fill="#4D4D4D"/>
<path d="M81.0526 55.306H81.4625V55.7624H81.0526V55.306ZM81.0927 56.6629H81.4225V60.1156H81.0927V56.6629Z" fill="#4D4D4D"/>
<path d="M83.0528 59.3704V60.1156H82.723V55.1725H83.0528V57.4422C83.1939 57.1884 83.3983 56.9761 83.6459 56.8263C83.8935 56.6766 84.1756 56.5945 84.4643 56.5884C84.6916 56.5931 84.9156 56.6436 85.1233 56.7369C85.3309 56.8302 85.5179 56.9645 85.6733 57.1317C85.8287 57.2989 85.9493 57.4958 86.028 57.7107C86.1066 57.9256 86.1419 58.1542 86.1315 58.383V58.3986C86.1423 58.6281 86.1074 58.8575 86.029 59.0733C85.9506 59.2891 85.8303 59.4869 85.675 59.6553C85.5197 59.8236 85.3326 59.9589 85.1247 60.0535C84.9168 60.148 84.6923 60.1997 84.4643 60.2057C84.1771 60.2026 83.8957 60.1239 83.6481 59.9774C83.4005 59.8309 83.1953 59.6216 83.0528 59.3704ZM85.7741 58.4017C85.7875 58.2139 85.7629 58.0254 85.7018 57.8475C85.6408 57.6695 85.5446 57.506 85.4189 57.3666C85.2933 57.2273 85.1409 57.1151 84.971 57.0368C84.8011 56.9585 84.6171 56.9158 84.4304 56.9113C84.2417 56.9161 84.0559 56.9583 83.8835 57.0355C83.7111 57.1128 83.5555 57.2234 83.4255 57.3613C83.2956 57.4991 83.1939 57.6614 83.1262 57.8388C83.0586 58.0163 83.0263 58.2054 83.0312 58.3955C83.0259 58.5856 83.0579 58.7749 83.1254 58.9525C83.1929 59.1302 83.2946 59.2926 83.4246 59.4305C83.5546 59.5684 83.7104 59.6791 83.883 59.7562C84.0556 59.8333 84.2416 59.8752 84.4304 59.8796C85.1762 59.8796 85.7741 59.3301 85.7741 58.4017Z" fill="#4D4D4D"/>
<path d="M86.9236 58.3954C86.9236 57.3925 87.6232 56.5914 88.5508 56.5914C89.4784 56.5914 90.1225 57.377 90.1225 58.4016C90.1257 58.4461 90.1257 58.4907 90.1225 58.5352H87.278C87.2812 58.8946 87.4239 59.2385 87.6756 59.4933C87.9273 59.748 88.268 59.8934 88.6248 59.8982C88.8479 59.8987 89.0684 59.8504 89.2711 59.7565C89.4738 59.6627 89.6539 59.5257 89.799 59.3549L90.027 59.5598C89.8542 59.7682 89.637 59.9347 89.3916 60.047C89.1462 60.1594 88.8788 60.2146 88.6094 60.2087C88.3787 60.207 88.1508 60.1581 87.9395 60.0649C87.7282 59.9716 87.538 59.8361 87.3803 59.6665C87.2226 59.4969 87.1008 59.2968 87.0223 59.0782C86.9438 58.8597 86.9102 58.6274 86.9236 58.3954ZM89.7681 58.2247C89.7188 57.5291 89.3243 56.8864 88.5354 56.8864C87.8574 56.8864 87.3335 57.4608 87.2718 58.2247H89.7681Z" fill="#4D4D4D"/>
<path d="M91.0841 56.6629H91.4138V57.3056C91.5305 57.0797 91.7081 56.8917 91.9262 56.7631C92.1443 56.6346 92.394 56.5708 92.6466 56.579C92.8327 56.5691 93.0188 56.5994 93.1924 56.6679C93.3659 56.7364 93.5229 56.8416 93.6528 56.9763C93.7827 57.111 93.8825 57.2721 93.9455 57.4489C94.0085 57.6256 94.0332 57.8139 94.018 58.0011V60.1156H93.6882V58.0632C93.6882 57.3522 93.2907 56.8864 92.6003 56.8864C92.4398 56.8841 92.2805 56.915 92.1323 56.9771C91.984 57.0393 91.85 57.1314 91.7385 57.2478C91.627 57.3642 91.5404 57.5024 91.4841 57.6539C91.4277 57.8053 91.4027 57.9668 91.4107 58.1284V60.1249H91.081L91.0841 56.6629ZM91.5741 56.0853C91.7035 55.5978 91.8823 55.4643 92.1381 55.4643C92.3939 55.4643 92.7544 55.7438 93.001 55.7438C93.1612 55.7438 93.2352 55.663 93.3369 55.4053L93.565 55.4643C93.4355 55.9518 93.2568 56.0853 93.001 56.0853C92.7452 56.0853 92.3846 55.809 92.1381 55.809C91.9778 55.809 91.9038 55.8897 91.8021 56.1474L91.5741 56.0853Z" fill="#4D4D4D"/>
<path d="M94.921 59.1127C94.921 58.3955 95.5374 57.9887 96.4218 57.9887C96.805 57.9841 97.1868 58.0343 97.556 58.1378V57.9887C97.556 57.2901 97.1338 56.933 96.428 56.933C96.0525 56.9351 95.6831 57.03 95.3524 57.2094L95.2323 56.9175C95.6077 56.7208 96.0234 56.6145 96.4465 56.607C96.6427 56.5947 96.8394 56.6219 97.0251 56.6869C97.2109 56.7519 97.3819 56.8536 97.5282 56.9858C97.65 57.1154 97.7441 57.2688 97.8045 57.4365C97.8649 57.6042 97.8905 57.7827 97.8796 57.9608V60.1156H97.556V59.5412C97.4072 59.7498 97.2101 59.9185 96.9818 60.0327C96.7535 60.1469 96.501 60.2031 96.2462 60.1964C95.6082 60.1964 94.921 59.83 94.921 59.1127ZM97.5621 58.8209V58.4296C97.1832 58.3274 96.7926 58.2752 96.4003 58.2744C95.673 58.2744 95.2723 58.5849 95.2723 59.0786C95.2723 59.5785 95.7408 59.8703 96.2647 59.8703C96.9643 59.8859 97.5621 59.4512 97.5621 58.8209Z" fill="#4D4D4D"/>
<path d="M98.7671 59.6809L98.9613 59.417C99.31 59.7033 99.7442 59.863 100.194 59.8703C100.656 59.8703 101.02 59.6157 101.02 59.2152V59.1997C101.02 58.796 100.592 58.647 100.114 58.5104C99.5561 58.3489 98.9366 58.1781 98.9366 57.5633C98.9366 57.0075 99.402 56.6101 100.065 56.6101C100.498 56.619 100.919 56.7502 101.282 56.9889L101.109 57.2653C100.797 57.0516 100.43 56.9321 100.052 56.9206C99.5807 56.9206 99.2725 57.1783 99.2725 57.523C99.2725 57.908 99.7379 58.0508 100.228 58.1936C100.78 58.3489 101.356 58.5507 101.356 59.1593V59.1748C101.356 59.7958 100.832 60.1839 100.172 60.1839C99.6621 60.1753 99.1685 59.9986 98.7671 59.6809Z" fill="#4D4D4D"/>
<path d="M104.197 58.4017C104.187 58.1723 104.221 57.943 104.3 57.7272C104.378 57.5114 104.498 57.3135 104.653 57.145C104.808 56.9765 104.994 56.8407 105.202 56.7457C105.409 56.6507 105.634 56.5983 105.862 56.5915C106.148 56.5936 106.429 56.6712 106.677 56.8167C106.924 56.9621 107.13 57.1703 107.273 57.4205V55.1849H107.603V60.1281H107.273V59.3549C107.133 59.6094 106.928 59.8222 106.681 59.9721C106.433 60.1219 106.15 60.2036 105.862 60.2088C105.633 60.2042 105.408 60.1532 105.2 60.0591C104.992 59.965 104.804 59.8296 104.649 59.661C104.494 59.4923 104.374 59.2939 104.296 59.0776C104.218 58.8613 104.185 58.6314 104.197 58.4017ZM107.279 58.4017C107.285 58.2115 107.253 58.022 107.186 57.8442C107.118 57.6663 107.017 57.5037 106.887 57.3657C106.757 57.2277 106.601 57.1171 106.428 57.0401C106.255 56.9632 106.069 56.9215 105.88 56.9175C105.134 56.9175 104.536 57.4671 104.536 58.3924V58.4079C104.523 58.5957 104.548 58.7842 104.609 58.9621C104.67 59.14 104.766 59.3036 104.891 59.443C105.017 59.5823 105.169 59.6945 105.339 59.7728C105.509 59.851 105.693 59.8938 105.88 59.8983C106.072 59.8956 106.261 59.8542 106.436 59.7768C106.612 59.6993 106.77 59.5872 106.902 59.4472C107.033 59.3072 107.136 59.142 107.204 58.9614C107.271 58.7807 107.302 58.5883 107.295 58.3955L107.279 58.4017Z" fill="#4D4D4D"/>
<path d="M108.62 58.3954C108.62 57.3925 109.316 56.5914 110.244 56.5914C111.172 56.5914 111.819 57.377 111.819 58.4016C111.824 58.446 111.824 58.4908 111.819 58.5352H108.977C108.98 58.8943 109.122 59.2382 109.373 59.4931C109.624 59.7479 109.965 59.8934 110.321 59.8982C110.545 59.8992 110.766 59.851 110.969 59.7572C111.172 59.6634 111.353 59.5261 111.498 59.3549L111.726 59.5598C111.553 59.7682 111.336 59.9347 111.091 60.047C110.845 60.1594 110.578 60.2146 110.309 60.2087C110.078 60.2074 109.85 60.1588 109.638 60.0658C109.426 59.9727 109.236 59.8373 109.078 59.6676C108.92 59.498 108.797 59.2977 108.719 59.079C108.64 58.8603 108.606 58.6277 108.62 58.3954ZM111.461 58.2247C111.415 57.5291 111.017 56.8864 110.229 56.8864C109.551 56.8864 109.027 57.4608 108.965 58.2247H111.461Z" fill="#4D4D4D"/>
<path d="M114.796 58.144V55.3743H115.144V58.1098C115.144 59.2276 115.742 59.8704 116.737 59.8704C117.733 59.8704 118.303 59.2897 118.303 58.144V55.3743H118.651V58.1036C118.651 59.4667 117.862 60.1902 116.722 60.1902C115.582 60.1902 114.796 59.4729 114.796 58.144Z" fill="#4D4D4D"/>
<path d="M119.902 56.6629H120.232V57.3056C120.349 57.0798 120.526 56.8917 120.745 56.7632C120.963 56.6346 121.212 56.5708 121.465 56.5791C121.651 56.5686 121.838 56.5986 122.011 56.6669C122.185 56.7352 122.342 56.8404 122.472 56.9752C122.602 57.11 122.702 57.2713 122.765 57.4483C122.828 57.6253 122.852 57.8138 122.836 58.0011V60.1156H122.507V58.0632C122.507 57.3522 122.112 56.8865 121.419 56.8865C121.258 56.8841 121.099 56.915 120.951 56.9772C120.802 57.0393 120.668 57.1314 120.557 57.2478C120.445 57.3643 120.359 57.5025 120.302 57.6539C120.246 57.8054 120.221 57.9669 120.229 58.1284V60.125H119.899L119.902 56.6629Z" fill="#4D4D4D"/>
<path d="M124.029 55.306H124.439V55.7624H124.029V55.306ZM124.069 56.6629H124.399V60.1156H124.069V56.6629Z" fill="#4D4D4D"/>
<path d="M125.345 56.6629H125.739L127.037 59.743L128.347 56.6629H128.717L127.176 60.1436H126.892L125.345 56.6629Z" fill="#4D4D4D"/>
<path d="M129.17 58.3954C129.17 57.3925 129.869 56.5914 130.797 56.5914C131.724 56.5914 132.369 57.377 132.369 58.4016C132.372 58.4461 132.372 58.4907 132.369 58.5352H129.527C129.529 58.8946 129.67 59.2389 129.922 59.4939C130.173 59.749 130.514 59.8942 130.871 59.8982C131.094 59.8992 131.316 59.851 131.519 59.7572C131.722 59.6634 131.903 59.5261 132.048 59.3549L132.276 59.5598C132.103 59.7677 131.886 59.9338 131.64 60.0461C131.395 60.1584 131.128 60.214 130.858 60.2087C130.628 60.207 130.4 60.1581 130.188 60.0649C129.977 59.9717 129.786 59.8362 129.628 59.6667C129.47 59.4971 129.348 59.297 129.27 59.0785C129.191 58.86 129.157 58.6276 129.17 58.3954ZM132.014 58.2247C131.968 57.5291 131.57 56.8864 130.781 56.8864C130.1 56.8864 129.576 57.4608 129.518 58.2247H132.014Z" fill="#4D4D4D"/>
<path d="M133.33 56.6629H133.66V57.644C133.779 57.3365 133.988 57.0727 134.259 56.8875C134.531 56.7023 134.851 56.6045 135.179 56.607V56.9734H135.145C134.353 56.9734 133.66 57.5757 133.66 58.6997V60.1156H133.33V56.6629Z" fill="#4D4D4D"/>
<path d="M135.725 59.6809L135.919 59.417C136.268 59.7033 136.702 59.863 137.152 59.8703C137.614 59.8703 137.978 59.6157 137.978 59.2152V59.1997C137.978 58.796 137.549 58.647 137.071 58.5104C136.514 58.3489 135.894 58.1781 135.894 57.5633C135.894 57.0075 136.36 56.6101 137.022 56.6101C137.455 56.619 137.877 56.7502 138.239 56.9889L138.067 57.2653C137.754 57.0516 137.387 56.9321 137.01 56.9206C136.538 56.9206 136.23 57.1783 136.23 57.523C136.23 57.908 136.695 58.0508 137.185 58.1936C137.737 58.3489 138.313 58.5507 138.313 59.1593V59.1748C138.313 59.7958 137.79 60.1839 137.13 60.1839C136.62 60.1753 136.126 59.9986 135.725 59.6809Z" fill="#4D4D4D"/>
<path d="M139.367 55.306H139.777V55.7624H139.367V55.306ZM139.407 56.6629H139.737V60.1156H139.407V56.6629Z" fill="#4D4D4D"/>
<path d="M140.81 58.4017C140.799 58.172 140.834 57.9425 140.912 57.7265C140.991 57.5105 141.111 57.3125 141.266 57.1439C141.421 56.9754 141.608 56.8397 141.816 56.7448C142.024 56.65 142.249 56.5978 142.477 56.5915C142.764 56.5936 143.045 56.6712 143.292 56.8167C143.54 56.9621 143.745 57.1703 143.889 57.4205V55.1849H144.231V60.1281H143.901V59.3549C143.76 59.609 143.556 59.8215 143.308 59.9713C143.06 60.1211 142.778 60.203 142.489 60.2088C142.26 60.2058 142.033 60.1561 141.824 60.0628C141.614 59.9694 141.425 59.8343 141.268 59.6655C141.111 59.4968 140.989 59.2979 140.911 59.0807C140.832 58.8635 140.798 58.6326 140.81 58.4017ZM143.91 58.4017C143.915 58.2116 143.883 58.0222 143.816 57.8446C143.748 57.667 143.647 57.5045 143.517 57.3666C143.387 57.2287 143.231 57.118 143.058 57.041C142.886 56.9639 142.7 56.9219 142.511 56.9175C141.765 56.9175 141.167 57.4671 141.167 58.3924V58.4079C141.154 58.5957 141.178 58.7842 141.239 58.9621C141.3 59.14 141.397 59.3036 141.522 59.443C141.648 59.5823 141.8 59.6945 141.97 59.7728C142.14 59.851 142.324 59.8938 142.511 59.8983C142.702 59.8947 142.891 59.8528 143.065 59.775C143.24 59.6972 143.398 59.5851 143.53 59.4452C143.661 59.3053 143.763 59.1404 143.831 58.9602C143.898 58.7799 143.929 58.588 143.922 58.3955L143.91 58.4017Z" fill="#4D4D4D"/>
<path d="M145.186 59.1127C145.186 58.3955 145.802 57.9887 146.684 57.9887C147.068 57.9839 147.451 58.0341 147.821 58.1378V57.9887C147.821 57.2901 147.399 56.933 146.693 56.933C146.317 56.9351 145.948 57.03 145.617 57.2094L145.494 56.9175C145.871 56.7209 146.287 56.6146 146.711 56.607C146.908 56.5947 147.104 56.6219 147.29 56.6869C147.476 56.7519 147.647 56.8536 147.793 56.9858C147.914 57.1158 148.008 57.2693 148.068 57.4369C148.129 57.6045 148.155 57.7827 148.145 57.9608V60.1156H147.821V59.5412C147.672 59.7498 147.475 59.9185 147.247 60.0327C147.019 60.1469 146.766 60.2031 146.511 60.1964C145.873 60.1964 145.186 59.83 145.186 59.1127ZM147.827 58.8209V58.4296C147.448 58.3276 147.058 58.2754 146.665 58.2744C145.938 58.2744 145.534 58.5849 145.534 59.0786C145.534 59.5785 146.006 59.8703 146.53 59.8703C147.229 59.8859 147.827 59.4512 147.827 58.8209Z" fill="#4D4D4D"/>
<path d="M149.103 58.4017C149.092 58.172 149.127 57.9425 149.205 57.7265C149.284 57.5105 149.404 57.3125 149.559 57.1439C149.715 56.9754 149.902 56.8397 150.11 56.7448C150.318 56.65 150.542 56.5978 150.77 56.5915C151.057 56.5936 151.338 56.6712 151.586 56.8167C151.833 56.9621 152.039 57.1703 152.182 57.4205V55.1849H152.512V60.1281H152.182V59.3549C152.041 59.609 151.837 59.8215 151.589 59.9713C151.341 60.1211 151.059 60.203 150.77 60.2088C150.542 60.2041 150.317 60.1532 150.108 60.0592C149.9 59.9651 149.712 59.8297 149.557 59.6611C149.401 59.4926 149.281 59.2942 149.203 59.0778C149.125 58.8615 149.091 58.6315 149.103 58.4017ZM152.203 58.4017C152.209 58.2116 152.177 58.0222 152.109 57.8446C152.042 57.667 151.94 57.5045 151.81 57.3666C151.68 57.2287 151.524 57.118 151.352 57.041C151.179 56.9639 150.993 56.9219 150.804 56.9175C150.058 56.9175 149.461 57.4671 149.461 58.3924V58.4079C149.447 58.5957 149.472 58.7842 149.533 58.9621C149.594 59.14 149.69 59.3036 149.816 59.443C149.941 59.5823 150.094 59.6945 150.264 59.7728C150.433 59.851 150.617 59.8938 150.804 59.8983C150.994 59.8931 151.181 59.85 151.355 59.7715C151.528 59.693 151.685 59.5806 151.815 59.4408C151.945 59.3011 152.046 59.1368 152.113 58.9573C152.18 58.7779 152.21 58.587 152.203 58.3955V58.4017Z" fill="#4D4D4D"/>
<path d="M153.525 58.3954C153.525 57.3925 154.225 56.5914 155.153 56.5914C156.08 56.5914 156.727 57.377 156.727 58.4016C156.732 58.446 156.732 58.4908 156.727 58.5352H153.877C153.878 58.8946 154.02 59.2389 154.272 59.4939C154.523 59.749 154.864 59.8942 155.22 59.8982C155.444 59.8992 155.665 59.851 155.869 59.7572C156.072 59.6634 156.252 59.5261 156.398 59.3549L156.626 59.5598C156.453 59.7677 156.235 59.9338 155.99 60.0461C155.745 60.1584 155.478 60.214 155.208 60.2087C154.978 60.2062 154.751 60.1566 154.54 60.0631C154.329 59.9695 154.139 59.8339 153.982 59.6644C153.825 59.495 153.703 59.2951 153.625 59.077C153.546 58.8589 153.513 58.6271 153.525 58.3954ZM156.37 58.2247C156.324 57.5291 155.926 56.8864 155.137 56.8864C154.459 56.8864 153.932 57.4608 153.874 58.2247H156.37Z" fill="#4D4D4D"/>
<path d="M157.39 59.6809L157.587 59.417C157.936 59.7033 158.37 59.863 158.82 59.8703C159.282 59.8703 159.646 59.6157 159.646 59.2152V59.1997C159.646 58.796 159.215 58.647 158.74 58.5104C158.182 58.3489 157.563 58.1781 157.563 57.5633C157.563 57.0075 158.025 56.6101 158.691 56.6101C159.129 56.6164 159.556 56.7478 159.923 56.9889L159.748 57.2653C159.436 57.0513 159.07 56.9317 158.694 56.9206C158.222 56.9206 157.914 57.1783 157.914 57.523C157.914 57.908 158.376 58.0508 158.869 58.1936C159.418 58.3489 159.997 58.5507 159.997 59.1593V59.1748C159.997 59.7958 159.473 60.1839 158.814 60.1839C158.297 60.1782 157.797 60.0014 157.39 59.6809Z" fill="#4D4D4D"/>
<path d="M163.116 55.3743H164.824C165.859 55.3743 166.571 55.9115 166.571 56.8244C166.571 57.8211 165.717 58.3365 164.722 58.3365H163.452V60.1032H163.101L163.116 55.3743ZM164.759 58.0229C165.631 58.0229 166.223 57.5633 166.223 56.8585C166.223 56.104 165.643 55.7128 164.799 55.7128H163.468V58.0353L164.759 58.0229Z" fill="#4D4D4D"/>
<path d="M167.532 56.6629H167.862V57.644C167.981 57.3365 168.191 57.0727 168.462 56.8875C168.733 56.7023 169.054 56.6045 169.382 56.607V56.9734H169.348C168.556 56.9734 167.862 57.5757 167.862 58.6997V60.1156H167.532V56.6629Z" fill="#4D4D4D"/>
<path d="M170.229 55.306H170.639V55.7624H170.229V55.306ZM170.269 56.6629H170.599V60.1156H170.269V56.6629Z" fill="#4D4D4D"/>
<path d="M171.545 56.6629H171.927L173.225 59.743L174.538 56.6629H174.907L173.366 60.1436H173.083L171.545 56.6629Z" fill="#4D4D4D"/>
<path d="M175.357 59.1127C175.357 58.3954 175.974 57.9887 176.855 57.9887C177.238 57.9835 177.62 58.0337 177.989 58.1377V57.9887C177.989 57.2901 177.567 56.933 176.861 56.933C176.486 56.936 176.117 57.0308 175.786 57.2093L175.665 56.9175C176.047 56.7181 176.469 56.6117 176.898 56.607C177.094 56.5952 177.291 56.6226 177.477 56.6876C177.662 56.7526 177.833 56.8539 177.98 56.9858C178.101 57.116 178.194 57.2696 178.254 57.4372C178.313 57.6048 178.339 57.7829 178.328 57.9607V60.1156H178.005V59.5412C177.856 59.7499 177.659 59.9188 177.431 60.033C177.202 60.1472 176.95 60.2033 176.695 60.1963C176.041 60.1963 175.357 59.8299 175.357 59.1127ZM177.998 58.8208V58.4296C177.618 58.3274 177.227 58.2752 176.833 58.2743C176.109 58.2743 175.706 58.5848 175.706 59.0785C175.706 59.5784 176.177 59.8703 176.701 59.8703C177.401 59.8858 177.998 59.4511 177.998 58.8208Z" fill="#4D4D4D"/>
<path d="M179.274 58.4017C179.264 58.172 179.298 57.9425 179.377 57.7265C179.455 57.5105 179.575 57.3125 179.731 57.1439C179.886 56.9754 180.073 56.8397 180.281 56.7448C180.489 56.65 180.713 56.5978 180.942 56.5915C181.228 56.5945 181.509 56.6725 181.756 56.8179C182.004 56.9632 182.209 57.1709 182.353 57.4205V55.1849H182.683V60.1281H182.353V59.3549C182.212 59.6088 182.007 59.8211 181.76 59.9709C181.512 60.1206 181.23 60.2026 180.942 60.2088C180.713 60.2041 180.488 60.1532 180.28 60.0592C180.071 59.9651 179.883 59.8297 179.728 59.6611C179.572 59.4926 179.452 59.2942 179.374 59.0778C179.296 58.8615 179.262 58.6315 179.274 58.4017ZM182.356 58.4017C182.362 58.2117 182.33 58.0225 182.263 57.8449C182.196 57.6672 182.094 57.5048 181.965 57.3668C181.835 57.2289 181.679 57.1181 181.507 57.041C181.335 56.9639 181.149 56.9219 180.96 56.9175C180.214 56.9175 179.616 57.4671 179.616 58.3924V58.4079C179.603 58.5958 179.627 58.7845 179.688 58.9626C179.749 59.1407 179.845 59.3045 179.97 59.4439C180.096 59.5833 180.249 59.6955 180.419 59.7737C180.589 59.8518 180.773 59.8942 180.96 59.8983C181.151 59.8951 181.34 59.8535 181.515 59.7759C181.69 59.6982 181.848 59.5861 181.98 59.4461C182.111 59.3061 182.213 59.1411 182.281 58.9606C182.348 58.7802 182.379 58.5881 182.372 58.3955L182.356 58.4017Z" fill="#4D4D4D"/>
<path d="M183.651 59.1127C183.651 58.3954 184.267 57.9887 185.148 57.9887C185.532 57.9839 185.915 58.0341 186.286 58.1377V57.9887C186.286 57.2901 185.86 56.933 185.154 56.933C184.779 56.936 184.41 57.0308 184.079 57.2093L183.959 56.9175C184.34 56.7181 184.762 56.6117 185.191 56.607C185.388 56.5952 185.584 56.6226 185.77 56.6876C185.955 56.7526 186.127 56.8539 186.273 56.9858C186.394 57.116 186.487 57.2696 186.547 57.4372C186.607 57.6048 186.632 57.7829 186.621 57.9607V60.1156H186.313V59.5412C186.164 59.7498 185.966 59.9185 185.737 60.0327C185.509 60.1468 185.256 60.203 185 60.1963C184.335 60.1963 183.651 59.8299 183.651 59.1127ZM186.292 58.8208V58.4296C185.912 58.3274 185.52 58.2752 185.127 58.2743C184.402 58.2743 183.999 58.5848 183.999 59.0785C183.999 59.5784 184.47 59.8703 184.994 59.8703C185.694 59.8858 186.292 59.4511 186.292 58.8208Z" fill="#4D4D4D"/>
<path d="M187.494 59.6809L187.688 59.417C188.037 59.7029 188.471 59.8625 188.92 59.8703C189.386 59.8703 189.75 59.6157 189.75 59.2152V59.1997C189.75 58.796 189.318 58.647 188.825 58.5104C188.267 58.3489 187.651 58.1781 187.651 57.5633C187.651 57.0075 188.113 56.6101 188.779 56.6101C189.212 56.6198 189.633 56.751 189.996 56.9889L189.82 57.2653C189.509 57.0522 189.143 56.9327 188.766 56.9206C188.295 56.9206 187.987 57.1783 187.987 57.523C187.987 57.908 188.449 58.0508 188.939 58.1936C189.491 58.3489 190.07 58.5507 190.07 59.1593V59.1748C190.07 59.7958 189.546 60.1839 188.887 60.1839C188.381 60.1719 187.892 59.9955 187.494 59.6809Z" fill="#4D4D4D"/>
<path d="M69.9765 26.8364H77.7181C79.8754 26.8364 81.5427 27.4574 82.6491 28.569C83.5921 29.5191 84.1006 30.8574 84.1006 32.4689V32.5154C84.1006 35.2696 82.6244 37.0022 80.4702 37.7939L84.6091 43.889H80.2606L76.6302 38.4398H73.7025V43.9014H69.9765V26.8364ZM77.4777 35.1236C79.2929 35.1236 80.3315 34.1487 80.3315 32.7111V32.6614C80.3315 31.053 79.219 30.224 77.4038 30.224H73.7055V35.1236H77.4777Z" fill="#4D4D4D"/>
<path d="M87.4691 26.8364H100.243V30.1774H91.1704V33.6363H99.1554V36.9773H91.1704V40.5605H100.367V43.9014H87.4691V26.8364Z" fill="#4D4D4D"/>
<path d="M109.489 26.7029H112.922L120.192 43.9014H116.287L114.747 40.073H107.575L106.034 43.9014H102.228L109.489 26.7029ZM113.412 36.7568L111.162 31.2237L108.913 36.7568H113.412Z" fill="#4D4D4D"/>
<path d="M122.793 26.8364H126.519V40.4984H134.963V43.9139H122.793V26.8364Z" fill="#4D4D4D"/>
<path d="M136.054 35.4186V35.3689C136.054 30.5189 139.682 26.5446 144.884 26.5446C148.08 26.5446 149.991 27.6158 151.562 29.1776L149.192 31.9317C147.886 30.7363 146.554 30.0066 144.859 30.0066C142.005 30.0066 139.95 32.3944 139.95 35.3193V35.3689C139.95 38.2938 141.956 40.7312 144.859 40.7312C146.795 40.7312 147.981 39.9519 149.313 38.7316L151.683 41.1473C149.941 43.0103 148.006 44.1933 144.739 44.1933C139.756 44.1933 136.054 40.3183 136.054 35.4186Z" fill="#4D4D4D"/>
<path d="M154.401 36.5861V26.8364H158.127V36.4898C158.127 39.2843 159.504 40.7064 161.779 40.7064C164.053 40.7064 165.434 39.3185 165.434 36.6109V26.8364H169.16V36.4619C169.16 41.6317 166.278 44.1654 161.729 44.1654C157.181 44.1654 154.401 41.6068 154.401 36.5861Z" fill="#4D4D4D"/>
<path d="M172.95 26.8364H179.872C183.912 26.8364 186.344 29.249 186.344 32.7359V32.7856C186.344 36.7351 183.293 38.7813 179.496 38.7813H176.664V43.9014H172.95V26.8364ZM179.629 35.4403C181.478 35.4403 182.581 34.3194 182.581 32.857V32.8104C182.581 31.1275 181.419 30.224 179.555 30.224H176.676V35.4403H179.629Z" fill="#4D4D4D"/>
<path d="M5.56903 2.79445C5.56901 3.34622 5.40687 3.88563 5.10304 4.3447C4.79921 4.80377 4.36729 5.16195 3.86172 5.37408C3.35616 5.58621 2.79958 5.6428 2.26213 5.53673C1.72469 5.43065 1.23045 5.16665 0.841699 4.77801C0.45295 4.38936 0.187097 3.89347 0.0776506 3.35283C-0.0317957 2.81219 0.0200636 2.25101 0.226692 1.74002C0.43332 1.22903 0.785468 0.791107 1.23875 0.481448C1.69203 0.171788 2.22615 0.004254 2.77379 -3.75373e-05C3.13985 -0.00290609 3.50284 0.0672581 3.84185 0.206409C4.18086 0.345561 4.48918 0.550947 4.74903 0.810725C5.00888 1.0705 5.21512 1.37953 5.35585 1.72C5.49659 2.06047 5.56904 2.42564 5.56903 2.79445Z" fill="#BD337A"/>
<path d="M12.1764 2.79449C12.1764 3.34719 12.0137 3.88747 11.7089 4.34702C11.4042 4.80657 10.971 5.16475 10.4642 5.37626C9.95734 5.58777 9.39965 5.64311 8.86161 5.53528C8.32357 5.42746 7.82935 5.16131 7.44145 4.77049C7.05354 4.37967 6.78938 3.88174 6.68236 3.33967C6.57533 2.79759 6.63026 2.23571 6.84019 1.72508C7.05012 1.21446 7.40563 0.778019 7.86176 0.470956C8.31789 0.163894 8.85415 0 9.40273 0C10.1383 0 10.8438 0.294419 11.364 0.818487C11.8842 1.34256 12.1764 2.05334 12.1764 2.79449Z" fill="#BD337A"/>
<path d="M8.87265 8.41448C8.87265 8.96718 8.70998 9.50747 8.4052 9.96702C8.10043 10.4266 7.66724 10.7847 7.16042 10.9963C6.6536 11.2078 6.09591 11.2631 5.55787 11.1553C5.01983 11.0475 4.52561 10.7813 4.13771 10.3905C3.7498 9.99967 3.48564 9.50174 3.37861 8.95966C3.27159 8.41758 3.32652 7.85571 3.53645 7.34508C3.74638 6.83445 4.10189 6.39801 4.55802 6.09095C5.01415 5.78389 5.55041 5.62 6.09898 5.62C6.83461 5.62 7.5401 5.91441 8.06026 6.43848C8.58042 6.96255 8.87265 7.67334 8.87265 8.41448Z" fill="#BD337A"/>
<path d="M15.4832 8.41448C15.4832 8.96718 15.3205 9.50747 15.0158 9.96702C14.711 10.4266 14.2778 10.7847 13.771 10.9963C13.2642 11.2078 12.7065 11.2631 12.1684 11.1553C11.6304 11.0475 11.1362 10.7813 10.7483 10.3905C10.3604 9.99967 10.0962 9.50174 9.98918 8.95966C9.88216 8.41758 9.93708 7.85571 10.147 7.34508C10.3569 6.83445 10.7125 6.39801 11.1686 6.09095C11.6247 5.78389 12.161 5.62 12.7095 5.62C13.4452 5.62 14.1507 5.91441 14.6708 6.43848C15.191 6.96255 15.4832 7.67334 15.4832 8.41448Z" fill="#BD337A"/>
<path d="M23.9306 18.6641C23.9306 19.1376 23.7912 19.6004 23.5301 19.9941C23.269 20.3878 22.8979 20.6946 22.4637 20.8758C22.0296 21.057 21.5518 21.1044 21.0909 21.012C20.63 20.9197 20.2066 20.6917 19.8743 20.3569C19.542 20.0221 19.3157 19.5955 19.224 19.1311C19.1323 18.6667 19.1794 18.1854 19.3592 17.748C19.5391 17.3105 19.8436 16.9366 20.2344 16.6736C20.6251 16.4105 21.0845 16.2701 21.5545 16.2701C22.1844 16.271 22.7883 16.5234 23.2337 16.9722C23.6791 17.421 23.9297 18.0294 23.9306 18.6641Z" fill="#BD337A"/>
<path d="M19.1784 14.9412C19.1784 15.6781 18.9615 16.3985 18.5551 17.0112C18.1487 17.624 17.5712 18.1015 16.8954 18.3836C16.2196 18.6656 15.476 18.7394 14.7587 18.5956C14.0413 18.4518 13.3823 18.097 12.8651 17.5759C12.3479 17.0548 11.9957 16.3909 11.853 15.6681C11.7103 14.9453 11.7835 14.1962 12.0634 13.5153C12.3433 12.8345 12.8174 12.2526 13.4255 11.8432C14.0337 11.4337 14.7487 11.2152 15.4801 11.2152C16.461 11.2152 17.4016 11.6078 18.0952 12.3065C18.7887 13.0053 19.1784 13.953 19.1784 14.9412Z" fill="#BD337A"/>
<path d="M28.7968 20.1451C28.7968 20.5197 28.6866 20.8859 28.48 21.1974C28.2734 21.5089 27.9798 21.7517 27.6363 21.895C27.2928 22.0384 26.9148 22.0759 26.5501 22.0028C26.1855 21.9297 25.8505 21.7493 25.5876 21.4844C25.3247 21.2195 25.1456 20.8821 25.0731 20.5147C25.0005 20.1472 25.0378 19.7664 25.1801 19.4203C25.3223 19.0742 25.5633 18.7784 25.8725 18.5703C26.1816 18.3622 26.5451 18.2511 26.9169 18.2511C27.1638 18.2511 27.4082 18.3001 27.6363 18.3953C27.8644 18.4905 28.0716 18.63 28.2462 18.8059C28.4208 18.9817 28.5592 19.1905 28.6537 19.4203C28.7482 19.6501 28.7968 19.8964 28.7968 20.1451Z" fill="#E5B52C"/>
<path d="M30.6767 24.8398C30.6767 25.2144 30.5665 25.5806 30.3599 25.8921C30.1533 26.2036 29.8597 26.4464 29.5162 26.5897C29.1727 26.7331 28.7947 26.7706 28.43 26.6975C28.0654 26.6244 27.7304 26.444 27.4675 26.1791C27.2046 25.9142 27.0255 25.5768 26.953 25.2094C26.8805 24.8419 26.9177 24.4611 27.06 24.115C27.2023 23.7689 27.4432 23.4731 27.7524 23.265C28.0615 23.0569 28.425 22.9458 28.7968 22.9458C29.2954 22.9458 29.7736 23.1453 30.1261 23.5006C30.4787 23.8558 30.6767 24.3375 30.6767 24.8398Z" fill="#E5B52C"/>
<path d="M36.2549 24.8398C36.2549 25.2144 36.1446 25.5806 35.9381 25.8921C35.7315 26.2036 35.4379 26.4464 35.0944 26.5897C34.7509 26.7331 34.3729 26.7706 34.0082 26.6975C33.6435 26.6244 33.3086 26.444 33.0456 26.1791C32.7827 25.9142 32.6037 25.5768 32.5311 25.2094C32.4586 24.8419 32.4958 24.4611 32.6381 24.115C32.7804 23.7689 33.0214 23.4731 33.3305 23.265C33.6397 23.0569 34.0031 22.9458 34.375 22.9458C34.8735 22.9458 35.3517 23.1453 35.7043 23.5006C36.0568 23.8558 36.2549 24.3375 36.2549 24.8398Z" fill="#E5B52C"/>
<path d="M62.0407 43.861C62.0407 45.4338 61.5778 46.9712 60.7106 48.2789C59.8433 49.5866 58.6107 50.6058 57.1685 51.2076C55.7263 51.8095 54.1394 51.967 52.6083 51.6601C51.0773 51.3533 49.671 50.596 48.5672 49.4839C47.4634 48.3718 46.7117 46.9549 46.4072 45.4124C46.1026 43.8699 46.2589 42.271 46.8563 40.818C47.4537 39.365 48.4653 38.1231 49.7632 37.2493C51.0611 36.3755 52.5871 35.9092 54.1481 35.9092C56.2414 35.9092 58.2489 36.747 59.729 38.2382C61.2092 39.7295 62.0407 41.7521 62.0407 43.861Z" fill="#B4C63A"/>
<path d="M42.7299 75.7927C42.7299 76.6256 42.4847 77.4397 42.0254 78.1322C41.566 78.8246 40.9132 79.3643 40.1494 79.6829C39.3856 80.0014 38.5452 80.0846 37.7345 79.9219C36.9237 79.7592 36.1791 79.3579 35.5948 78.7688C35.0105 78.1796 34.6127 77.4291 34.4518 76.6122C34.2909 75.7953 34.3741 74.9486 34.6909 74.1793C35.0076 73.41 35.5438 72.7527 36.2314 72.2904C36.919 71.8281 37.7273 71.5817 38.554 71.5823C39.1026 71.5823 39.6459 71.6913 40.1527 71.9029C40.6596 72.1145 41.1201 72.4247 41.5079 72.8157C41.8957 73.2067 42.2032 73.6709 42.4129 74.1817C42.6226 74.6925 42.7303 75.2399 42.7299 75.7927Z" fill="#53A5A5"/>
<path d="M42.471 63.7205C42.471 64.5532 42.2259 65.3673 41.7667 66.0596C41.3075 66.752 40.6548 67.2917 39.8912 67.6104C39.1276 67.929 38.2874 68.0124 37.4767 67.85C36.6661 67.6875 35.9214 67.2865 35.337 66.6977C34.7526 66.1088 34.3546 65.3586 34.1933 64.5419C34.0321 63.7252 34.1148 62.8786 34.4311 62.1093C34.7474 61.3399 35.283 60.6823 35.9703 60.2197C36.6575 59.7571 37.4655 59.5101 38.292 59.5101C39.4003 59.5101 40.4633 59.9537 41.247 60.7433C42.0307 61.5329 42.471 62.6038 42.471 63.7205Z" fill="#53A5A5"/>
<path d="M50.0955 66.0555C50.0961 66.6857 49.9112 67.3019 49.5641 67.8262C49.217 68.3505 48.7234 68.7593 48.1457 69.0009C47.5679 69.2425 46.9321 69.306 46.3185 69.1835C45.7049 69.0609 45.1412 68.7577 44.6987 68.3123C44.2562 67.8669 43.9548 67.2993 43.8325 66.6812C43.7102 66.0632 43.7727 65.4225 44.0119 64.8402C44.2511 64.2579 44.6564 63.7602 45.1765 63.41C45.6965 63.0598 46.308 62.8729 46.9335 62.8729C47.7716 62.8729 48.5754 63.2081 49.1683 63.8048C49.7612 64.4016 50.0947 65.2111 50.0955 66.0555Z" fill="#B4C63A"/>
<path d="M39.4138 52.6916C39.4138 53.3211 39.2285 53.9364 38.8814 54.4598C38.5343 54.9832 38.0409 55.3911 37.4637 55.632C36.8865 55.8729 36.2514 55.9359 35.6386 55.8131C35.0258 55.6903 34.463 55.3872 34.0212 54.9421C33.5794 54.497 33.2786 53.9299 33.1567 53.3125C33.0348 52.6952 33.0973 52.0553 33.3364 51.4737C33.5755 50.8922 33.9804 50.3951 34.4999 50.0454C35.0194 49.6957 35.6301 49.509 36.2549 49.509C37.0927 49.509 37.8961 49.8443 38.4886 50.4412C39.081 51.0381 39.4138 51.8476 39.4138 52.6916Z" fill="#BD3232"/>
<path d="M48.2618 56.3276C48.2618 56.9576 48.0763 57.5736 47.7289 58.0975C47.3814 58.6213 46.8876 59.0297 46.3098 59.2708C45.732 59.5119 45.0963 59.575 44.4829 59.4521C43.8696 59.3291 43.3061 59.0257 42.8639 58.5802C42.4217 58.1347 42.1206 57.567 41.9986 56.9491C41.8766 56.3311 41.9392 55.6906 42.1785 55.1084C42.4178 54.5263 42.8231 54.0288 43.3431 53.6787C43.8631 53.3287 44.4744 53.1418 45.0998 53.1418C45.5151 53.1414 45.9265 53.2236 46.3103 53.3835C46.6941 53.5435 47.0429 53.7781 47.3365 54.074C47.6302 54.3699 47.8631 54.7213 48.0219 55.108C48.1807 55.4947 48.2622 55.9091 48.2618 56.3276Z" fill="#53A5A5"/>
<path d="M54.8569 59.0599C54.86 59.6901 54.6774 60.3071 54.3324 60.8327C53.9874 61.3584 53.4953 61.7691 52.9185 62.013C52.3418 62.2568 51.7061 62.3229 51.0921 62.2027C50.4781 62.0826 49.9132 61.7816 49.469 61.3379C49.0247 60.8943 48.7211 60.3278 48.5964 59.7103C48.4718 59.0927 48.5317 58.4518 48.7687 57.8685C49.0057 57.2853 49.409 56.786 49.9277 56.4338C50.4464 56.0815 51.0571 55.8922 51.6826 55.8897C52.0977 55.8877 52.5092 55.9681 52.8934 56.1264C53.2776 56.2846 53.6271 56.5176 53.9219 56.812C54.2167 57.1064 54.451 57.4565 54.6115 57.8422C54.7719 58.2279 54.8553 58.6417 54.8569 59.0599Z" fill="#B4C63A"/>
<path d="M51.5779 31.4224C51.5779 32.3478 51.3055 33.2525 50.7951 34.022C50.2848 34.7915 49.5595 35.3913 48.7108 35.7454C47.8622 36.0996 46.9284 36.1922 46.0274 36.0117C45.1265 35.8311 44.299 35.3855 43.6495 34.7311C42.9999 34.0767 42.5576 33.2429 42.3784 32.3353C42.1992 31.4276 42.2912 30.4867 42.6427 29.6317C42.9942 28.7767 43.5895 28.0459 44.3532 27.5318C45.117 27.0176 46.0149 26.7432 46.9335 26.7432C47.5435 26.7428 48.1476 26.8635 48.7113 27.0985C49.275 27.3335 49.7871 27.6782 50.2185 28.1128C50.6498 28.5474 50.9919 29.0633 51.2251 29.6312C51.4584 30.1991 51.5783 30.8078 51.5779 31.4224Z" fill="#B4C63A"/>
<path d="M40.8992 31.4224C40.8992 32.3478 40.6268 33.2525 40.1165 34.022C39.6062 34.7915 38.8808 35.3913 38.0322 35.7454C37.1836 36.0996 36.2497 36.1922 35.3488 36.0117C34.4479 35.8311 33.6204 35.3855 32.9708 34.7311C32.3213 34.0767 31.879 33.2429 31.6998 32.3353C31.5206 31.4276 31.6125 30.4867 31.9641 29.6317C32.3156 28.7767 32.9109 28.0459 33.6746 27.5318C34.4384 27.0176 35.3363 26.7432 36.2549 26.7432C37.4866 26.7432 38.668 27.2362 39.5389 28.1137C40.4099 28.9912 40.8992 30.1814 40.8992 31.4224Z" fill="#E5B52C"/>
<path d="M45.9906 44C46.0014 41.4158 43.9307 39.3121 41.3658 39.3013C38.8008 39.2904 36.7128 41.3766 36.702 43.9608C36.6913 46.5451 38.7619 48.6488 41.3269 48.6596C43.8918 48.6704 45.9799 46.5843 45.9906 44Z" fill="#BD3232"/>
<path d="M36.3658 42.057C36.3658 42.9825 36.0934 43.8872 35.5831 44.6567C35.0728 45.4262 34.3474 46.0259 33.4988 46.3801C32.6501 46.7342 31.7163 46.8269 30.8154 46.6463C29.9145 46.4658 29.0869 46.0201 28.4374 45.3657C27.7879 44.7113 27.3456 43.8776 27.1664 42.9699C26.9872 42.0622 27.0791 41.1214 27.4306 40.2664C27.7822 39.4114 28.3774 38.6806 29.1412 38.1664C29.905 37.6522 30.8029 37.3778 31.7215 37.3778C32.9532 37.3778 34.1345 37.8708 35.0055 38.7483C35.8765 39.6258 36.3658 40.816 36.3658 42.057Z" fill="#BD3232"/>
<path d="M40.5602 14.4816C40.5621 15.0758 40.3888 15.6573 40.0625 16.1523C39.7361 16.6472 39.2713 17.0335 38.727 17.2622C38.1826 17.4909 37.5831 17.5517 37.0044 17.4369C36.4257 17.3221 35.8938 17.0369 35.4761 16.6173C35.0584 16.1978 34.7736 15.6628 34.6579 15.0801C34.5421 14.4974 34.6006 13.8933 34.8259 13.3441C35.0512 12.7949 35.4332 12.3254 35.9234 11.9951C36.4137 11.6647 36.9903 11.4884 37.5801 11.4884C38.3689 11.4884 39.1255 11.8035 39.6841 12.3645C40.2427 12.9256 40.5578 13.6869 40.5602 14.4816Z" fill="#6E4193"/>
<path d="M34.1746 10.3582C34.1746 11.1744 33.9344 11.9722 33.4844 12.6508C33.0343 13.3294 32.3946 13.8583 31.6462 14.1706C30.8978 14.483 30.0743 14.5647 29.2798 14.4055C28.4853 14.2462 27.7555 13.8532 27.1827 13.2761C26.6099 12.699 26.2198 11.9637 26.0618 11.1633C25.9037 10.3628 25.9848 9.53309 26.2948 8.77906C26.6048 8.02504 27.1298 7.38056 27.8034 6.92713C28.4769 6.47371 29.2688 6.23169 30.0788 6.23169C30.6167 6.23169 31.1493 6.33843 31.6462 6.5458C32.1432 6.75318 32.5947 7.05714 32.975 7.44032C33.3553 7.82351 33.657 8.27841 33.8629 8.77906C34.0687 9.27972 34.1746 9.81631 34.1746 10.3582Z" fill="#6E4193"/>
</g>
<defs>
<clipPath id="clip0_375_2005">
<rect width="204" height="80" fill="white"/>
</clipPath>
</defs>
</svg>
