<svg width="25" height="24" viewBox="0 0 25 24" fill="none" xmlns="http://www.w3.org/2000/svg">
<g clip-path="url(#clip0_63_110)">
<path d="M23.2854 3.00005C22.3278 3.67552 21.2675 4.19216 20.1454 4.53005C19.5431 3.83756 18.7427 3.34674 17.8524 3.12397C16.9621 2.90121 16.0249 2.95724 15.1675 3.2845C14.3101 3.61176 13.5738 4.19445 13.0584 4.95376C12.5429 5.71308 12.2731 6.61238 12.2854 7.53005V8.53005C10.528 8.57561 8.78667 8.18586 7.21641 7.39549C5.64614 6.60513 4.29572 5.43868 3.2854 4.00005C3.2854 4.00005 -0.7146 13 8.2854 17C6.22593 18.398 3.77256 19.099 1.2854 19C10.2854 24 21.2854 19 21.2854 7.50005C21.2845 7.2215 21.2577 6.94364 21.2054 6.67005C22.226 5.66354 22.9462 4.39276 23.2854 3.00005V3.00005Z" stroke="white" stroke-width="2" stroke-linecap="round" stroke-linejoin="round"/>
</g>
<defs>
<clipPath id="clip0_63_110">
<rect width="24" height="24" fill="white" transform="translate(0.2854)"/>
</clipPath>
</defs>
</svg>
