<svg width="25" height="24" viewBox="0 0 25 24" fill="none" xmlns="http://www.w3.org/2000/svg">
<g clip-path="url(#clip0_63_120)">
<path d="M22.8254 6.42C22.7066 5.94541 22.4646 5.51057 22.124 5.15941C21.7834 4.80824 21.3561 4.55318 20.8854 4.42C19.1654 4 12.2854 4 12.2854 4C12.2854 4 5.40536 4 3.68536 4.46C3.21461 4.59318 2.78734 4.84824 2.44671 5.19941C2.10608 5.55057 1.86415 5.98541 1.74536 6.46C1.43058 8.20556 1.2766 9.97631 1.28536 11.75C1.27414 13.537 1.42813 15.3213 1.74536 17.08C1.87632 17.5398 2.12367 17.9581 2.46351 18.2945C2.80334 18.6308 3.22418 18.8738 3.68536 19C5.40536 19.46 12.2854 19.46 12.2854 19.46C12.2854 19.46 19.1654 19.46 20.8854 19C21.3561 18.8668 21.7834 18.6118 22.124 18.2606C22.4646 17.9094 22.7066 17.4746 22.8254 17C23.1377 15.2676 23.2917 13.5103 23.2854 11.75C23.2966 9.96295 23.1426 8.1787 22.8254 6.42V6.42Z" stroke="white" stroke-width="2" stroke-linecap="round" stroke-linejoin="round"/>
<path d="M10.0354 15.02L15.7854 11.75L10.0354 8.47998V15.02Z" stroke="white" stroke-width="2" stroke-linecap="round" stroke-linejoin="round"/>
</g>
<defs>
<clipPath id="clip0_63_120">
<rect width="24" height="24" fill="white" transform="translate(0.2854)"/>
</clipPath>
</defs>
</svg>
